name analog
datacolumns 19
datarows 23
range 0.0 0.011
endheader
time	ground_force_vx	ground_force_vy	ground_force_vz	ground_force_px	ground_force_py	ground_force_pz	l_ground_force_vx	l_ground_force_vy	l_ground_force_vz	l_ground_force_px	l_ground_force_py	l_ground_force_pz	ground_torque_x	ground_torque_y	ground_torque_z	l_ground_torque_x	l_ground_torque_y	l_ground_torque_z
0.0	-0.0	-0.0	-0.0	-6.810897350311279	42.870853424072266	-344.1161499023437	-0.234795868396759	-37.00603485107422	-300.851318359375	-0.0	-0.0	-0.0	-0.0	-0.0	-0.0	81635.0546875	-1584.4493408203125	-1254.9500732421875
0.0005	-0.0	-0.0	-0.0	-7.5538649559021	43.61589050292969	-347.4015197753906	-0.5929840803146362	-36.21283721923828	-299.6934814453125	-0.0	-0.0	-0.0	-0.0	-0.0	-0.0	80710.671875	-1449.54736328125	-1384.1591796875
0.001	-0.0	-0.0	-0.0	-7.939735412597656	43.87971115112305	-351.6477966308594	-0.8871078491210938	-35.50297164916992	-295.74072265625	-0.0	-0.0	-0.0	-0.0	-0.0	-0.0	80162.921875	-1116.9580078125	-1542.5537109375
0.0015	-0.0	-0.0	-0.0	-8.68216609954834	44.41714477539063	-355.5442810058594	-1.0658963918685913	-34.82863998413086	-293.98028564453125	-0.0	-0.0	-0.0	-0.0	-0.0	-0.0	79595.4296875	-1088.6446533203125	-1670.3338623046875
0.002	-0.0	-0.0	-0.0	-9.218984603881836	44.540016174316406	-361.1763916015625	-1.9801558256149288	-33.82563781738281	-292.7013244628906	-0.0	-0.0	-0.0	-0.0	-0.0	-0.0	78746.90625	-692.7092895507812	-1780.3062744140625
0.0025	-0.0	-0.0	-0.0	-9.722016334533691	45.01085662841797	-362.3626098632813	-2.455538034439087	-32.88570785522461	-290.6200561523437	-0.0	-0.0	-0.0	-0.0	-0.0	-0.0	78474.3515625	-527.3412475585938	-2036.7386474609373
0.003	-0.0	-0.0	-0.0	-10.374587059020996	44.926002502441406	-364.3526916503906	-3.0141468048095703	-32.23540496826172	-291.06549072265625	-0.0	-0.0	-0.0	-0.0	-0.0	-0.0	78261.8203125	-343.9356384277344	-2147.493408203125
0.0035	-0.0	-0.0	-0.0	-10.409445762634276	44.6801643371582	-365.7459716796875	-3.5225396156311035	-32.17926788330078	-289.0975341796875	-0.0	-0.0	-0.0	-0.0	-0.0	-0.0	78172.0546875	-219.26942443847656	-2541.5185546875
0.004	-0.0	-0.0	-0.0	-11.237961769104004	44.600887298583984	-365.88427734375	-4.052751541137695	-32.26280975341797	-290.2645874023437	-0.0	-0.0	-0.0	-0.0	-0.0	-0.0	78132.640625	-110.52528381347656	-2611.35302734375
0.0045000000000000005	-0.0	-0.0	-0.0	-11.65867519378662	44.26718521118164	-364.6030578613281	-5.084333419799805	-31.85643196105957	-291.9795837402344	-0.0	-0.0	-0.0	-0.0	-0.0	-0.0	78239.7109375	371.2968444824219	-2750.101806640625
0.005	-0.0	-0.0	-0.0	-11.984940528869627	44.11955261230469	-362.1547546386719	-5.377975463867188	-32.29534912109375	-291.9883728027344	-0.0	-0.0	-0.0	-0.0	-0.0	-0.0	78024.6328125	436.69580078125	-2958.974609375
0.0055	-0.0	-0.0	-0.0	-12.372655868530272	43.52641296386719	-360.8153076171875	-5.9160990715026855	-32.21001052856445	-291.7582702636719	-0.0	-0.0	-0.0	-0.0	-0.0	-0.0	78217.9140625	639.6163940429688	-3226.335205078125
0.006	-0.0	-0.0	-0.0	-12.781200408935549	43.235008239746094	-359.42840576171875	-6.8548760414123535	-32.50562286376953	-291.3003234863281	-0.0	-0.0	-0.0	-0.0	-0.0	-0.0	78361.203125	1068.8411865234375	-3247.6005859375
0.006500000000000001	-0.0	-0.0	-0.0	-13.055676460266112	42.837196350097656	-357.4467163085937	-7.182086944580078	-33.144290924072266	-291.7972412109375	-0.0	-0.0	-0.0	-0.0	-0.0	-0.0	78221.4765625	1401.9910888671875	-3434.001953125
0.007	-0.0	-0.0	-0.0	-13.33908748626709	42.51520538330078	-354.4698791503906	-7.444316864013672	-32.84830856323242	-292.02655029296875	-0.0	-0.0	-0.0	-0.0	-0.0	-0.0	78230.78125	1582.21875	-3659.84423828125
0.0075	-0.0	-0.0	-0.0	-13.738418579101562	42.050537109375	-353.457763671875	-8.36191463470459	-33.30500793457031	-291.769287109375	-0.0	-0.0	-0.0	-0.0	-0.0	-0.0	78123.859375	1938.619873046875	-3921.036865234375
0.008	-0.0	-0.0	-0.0	-13.854534149169922	41.57013702392578	-350.1414489746094	-9.11038303375244	-33.611568450927734	-291.5416259765625	-0.0	-0.0	-0.0	-0.0	-0.0	-0.0	78160.6796875	1975.636962890625	-4056.92138671875
0.0085	-0.0	-0.0	-0.0	-14.20681095123291	41.120304107666016	-348.571044921875	-9.931303977966309	-34.12303924560547	-293.5314025878906	-0.0	-0.0	-0.0	-0.0	-0.0	-0.0	78121.1171875	2067.466552734375	-4317.01611328125
0.009000000000000001	-0.0	-0.0	-0.0	-14.326926231384276	40.85299301147461	-347.1573791503906	-10.5831298828125	-34.49831771850586	-291.2969665527344	-0.0	-0.0	-0.0	-0.0	-0.0	-0.0	77750.703125	2472.978271484375	-4375.38671875
0.0095	-0.0	-0.0	-0.0	-13.8011474609375	40.94219207763672	-344.1214294433594	-10.769903182983398	-34.860774993896484	-292.4664611816406	-0.0	-0.0	-0.0	-0.0	-0.0	-0.0	77748.4921875	2675.115966796875	-4503.02685546875
0.01	-0.0	-0.0	-0.0	-14.090187072753906	41.19950866699219	-341.9423522949219	-11.026416778564451	-34.94922637939453	-291.2118835449219	-0.0	-0.0	-0.0	-0.0	-0.0	-0.0	77593.5859375	2622.786865234375	-4625.083984375
0.0105	-0.0	-0.0	-0.0	-14.026942253112791	40.70111846923828	-339.6553955078125	-10.8017578125	-35.29751968383789	-292.1992492675781	-0.0	-0.0	-0.0	-0.0	-0.0	-0.0	77531.765625	2737.960205078125	-4494.1904296875
0.011	-0.0	-0.0	-0.0	-13.353981971740724	40.66950225830078	-338.1558532714844	-10.379161834716797	-35.71318817138672	-290.3706970214844	-0.0	-0.0	-0.0	-0.0	-0.0	-0.0	77355.5078125	2918.47900390625	-4434.5966796875
